<svg width="43" height="43" viewBox="0 0 43 43" fill="none" xmlns="http://www.w3.org/2000/svg">
<path d="M13.6067 14.848C14.0683 14.1375 16.5991 10.0612 16.7159 9.55514C16.8274 9.07142 16.7394 8.44732 16.7397 7.94702C16.7416 5.68417 16.3968 3.11086 18.1326 1.35246C18.7999 0.67619 19.5807 0.301282 20.5025 0.099948C21.7197 -0.155468 22.9887 0.0831985 24.0298 0.763777C25.04 1.42186 25.7445 2.45708 25.9862 3.63828C26.1599 4.47489 26.1296 5.52192 26.1326 6.39075L26.1497 9.60683C27.2521 11.2068 28.2524 13.2505 29.3122 14.8426C30.462 14.4923 31.5889 14.0732 32.7325 13.7039C32.9743 13.6258 33.2154 13.5456 33.4657 13.4993C33.6184 11.9884 33.9938 10.8239 35.2002 9.82906C36.1451 9.06233 37.3521 8.69492 38.564 8.80532C39.8686 8.93375 41.0029 9.5052 41.8274 10.532C42.265 11.0765 42.5674 11.717 42.7093 12.4009C42.9723 13.6152 42.8405 15.4672 42.8526 16.7307C42.8749 19.0489 43.1469 21.6455 41.0382 23.1911C40.1973 23.819 39.2918 24.1212 38.2401 24.1868C37.6757 26.1843 36.841 28.2353 36.3317 30.2533C36.2451 30.5966 36.5069 31.4675 36.4962 31.8398C36.501 32.9456 36.5187 34.1443 36.5021 35.2392C36.4693 37.3938 36.8908 39.8988 34.5933 41.0916C32.6174 42.1176 29.4805 42.2936 27.281 42.4207C26.9742 42.4386 25.8969 42.4968 25.6301 42.4673C25.048 42.5393 22.8183 42.5546 22.1412 42.5399C20.8225 42.5113 18.6174 42.5999 17.3592 42.4665C17.2832 42.4738 17.0744 42.467 16.9878 42.4665C16.6717 42.4628 16.4541 42.4657 16.1416 42.4139L16.0924 42.4013C15.8531 42.4218 15.4851 42.419 15.2525 42.3695C13.5778 42.35 12.0546 42.1088 10.4308 41.7604C7.55315 41.1428 6.22741 39.8563 6.38407 36.8231C6.48697 34.8289 6.188 32.3542 6.59179 30.3153C6.64268 30.0582 5.99193 28.2034 5.86223 27.8106L4.68055 24.201C3.20054 24.028 2.0471 23.6404 1.06707 22.4387C-0.343538 20.7094 0.063437 18.2018 0.029775 16.1176C-0.00883254 13.7382 -0.246382 11.3518 1.85837 9.74243C3.88479 8.19318 6.93543 8.54352 8.46792 10.6344C9.08756 11.4775 9.3409 12.4507 9.42833 13.4749C10.6355 13.7878 12.3804 14.4345 13.6067 14.848Z" fill="url(#paint0_linear_2323_720)"/>
<path d="M17.3594 42.4667C18.4964 42.348 19.7455 42.4673 20.8891 42.396C21.9181 42.3318 22.9039 42.4049 23.933 42.4233C24.4603 42.4327 25.115 42.4099 25.6303 42.4675C25.0482 42.5394 22.8185 42.5547 22.1415 42.54C20.8227 42.5115 18.6176 42.6 17.3594 42.4667Z" fill="#401100"/>
<path d="M15.2522 42.3696C14.9468 42.1831 15.0422 42.3725 14.9336 42.2201C15.1233 42.0062 15.9032 42.2471 16.0921 42.4014C15.8528 42.4219 15.4848 42.4191 15.2522 42.3696Z" fill="#401100"/>
<path d="M16.1406 42.414C16.3302 42.403 16.5061 42.4124 16.6693 42.3204L16.6002 42.314C16.8271 42.252 16.8895 42.187 17.0674 42.3888L16.9868 42.4667C16.6708 42.463 16.4532 42.4659 16.1406 42.414Z" fill="#401100"/>
<path d="M18.3426 5.52664C18.2925 5.20853 18.2639 4.94195 18.2697 4.61729C18.2794 3.75149 18.6463 2.92813 19.2838 2.34216C20.6893 1.02439 22.6577 1.26178 23.9027 2.66729C24.6835 3.48156 24.6966 4.70807 24.4968 5.74999C24.6328 6.26896 24.7136 9.38964 24.5967 9.84511C25.2996 11.1645 26.2573 12.6241 27.0295 13.9225C27.5018 14.7173 28.1283 15.8542 28.6309 16.5877C28.8092 16.6329 28.8191 16.589 29.0311 16.5167C29.7513 16.2613 34.9027 14.6063 35.1018 14.3879C34.7053 13.2647 35.1997 11.7892 36.0981 11.0252C36.7471 10.4766 37.5862 10.206 38.4334 10.2722C39.3874 10.3561 40.0635 10.7623 40.6654 11.4859C41.4231 12.3331 41.4009 13.3858 41.264 14.4383C41.4033 15.1932 41.4105 19.403 41.2696 20.1119C41.1839 20.5491 41.0084 20.9639 40.7541 21.3299C39.8845 22.589 38.5939 22.8294 37.1558 22.6103C36.9384 23.7628 36.1475 25.7479 35.7975 26.9397C35.6616 27.4028 34.8129 30.0694 34.6422 30.3961C35.003 31.1683 35.0121 31.5332 34.9732 32.379C34.9957 33.6728 35.0056 34.9668 35.0029 36.2608C35.0013 36.9736 35.0688 37.757 34.9094 38.4554C34.8279 38.8129 34.702 39.0923 34.4424 39.3555C32.6111 41.2133 24.0642 41.0526 21.4641 41.0314C20.1691 41.0327 18.8742 41.0218 17.5794 40.9989C15.7265 40.9542 13.8064 40.8507 11.9768 40.5732C10.7974 40.3767 9.27044 40.1098 8.39826 39.225C7.70604 38.5229 7.86956 36.9751 7.86286 36.0606C7.85408 34.8711 7.85074 33.6341 7.91934 32.451C7.86892 31.5001 7.84978 31.2396 8.29121 30.3701C8.02909 29.7735 7.8434 29.1261 7.63839 28.506C7.30672 27.5298 6.98605 26.5499 6.67655 25.5664C6.43406 24.8076 5.87425 23.2884 5.74774 22.5473C5.27982 22.6545 4.88114 22.7139 4.40046 22.6738C3.57247 22.5992 2.8091 22.1948 2.28231 21.5515C1.93947 21.1302 1.70288 20.6326 1.59216 20.1007C1.44602 19.4134 1.50856 14.9434 1.58546 14.1806C1.54589 13.8064 1.51143 13.523 1.54956 13.1488C1.63188 12.2838 2.06231 11.4893 2.74193 10.9478C3.39906 10.4174 4.2414 10.1726 5.08056 10.2682C5.96965 10.3708 6.70001 10.8291 7.24913 11.5226C7.92157 12.2614 8.03516 13.5283 7.75071 14.4555C8.16279 14.5938 8.64091 14.7416 9.03991 14.9006C10.6115 15.3749 12.7574 16.0839 14.2759 16.6499C14.7553 15.9143 15.2307 15.0461 15.6886 14.285C16.5898 12.8126 17.4769 11.3318 18.3501 9.84272C18.154 9.29647 18.2502 6.22254 18.3426 5.52664Z" fill="url(#paint1_linear_2323_720)"/>
<path d="M7.92032 32.4509C8.03104 32.8421 8.60153 33.3968 8.93113 33.6304C11.1126 35.0338 18.747 34.9285 21.4858 34.9784C21.44 35.6621 21.4588 36.5521 21.4596 37.2549L21.465 41.0314C20.1701 41.0327 18.8751 41.0218 17.5803 40.9988C15.7275 40.9542 13.8073 40.8506 11.9778 40.5732C10.7983 40.3766 9.27142 40.1097 8.39924 39.225C7.70702 38.5228 7.87054 36.975 7.86384 36.0606C7.85507 34.8711 7.85172 33.634 7.92032 32.4509Z" fill="#7F4600"/>
<path d="M34.9722 32.3792C34.9947 33.673 35.0046 34.967 35.0019 36.261C35.0003 36.9738 35.0678 37.7571 34.9084 38.4555C34.8269 38.8131 34.701 39.0924 34.4414 39.3556C32.6101 41.2134 24.0632 41.0528 21.463 41.0316L21.4576 37.255C21.4568 36.5523 21.438 35.6622 21.4838 34.9786C24.4231 34.9533 31.8155 35.1264 34.0783 33.6012C34.4917 33.3225 34.8725 32.8788 34.9722 32.3792Z" fill="#7F3B00"/>
<path d="M1.58546 14.1804C1.78408 14.8886 2.24306 15.6233 2.86047 16.0328C3.18751 16.4131 3.92505 16.5529 4.41259 16.5876C4.84764 16.6159 5.28445 16.5944 5.71455 16.5234C5.84713 16.9575 5.94014 17.2197 6.12504 17.6344C6.34647 18.5013 6.63651 19.3811 6.91873 20.231C7.92715 23.2669 8.86506 26.3464 9.89933 29.3728C9.09846 29.657 8.9008 29.7852 8.29121 30.3699C8.02909 29.7733 7.8434 29.1259 7.63839 28.5057C7.30672 27.5295 6.98605 26.5497 6.67655 25.5661C6.43406 24.8074 5.87425 23.2881 5.74774 22.5471C5.27982 22.6543 4.88114 22.7137 4.40046 22.6736C3.57247 22.5989 2.8091 22.1945 2.28231 21.5513C1.93947 21.1299 1.70288 20.6324 1.59216 20.1005C1.44602 19.4132 1.50856 14.9432 1.58546 14.1804Z" fill="#7F4600"/>
<path d="M37.1995 16.5492C39.1218 16.7935 40.4347 16.2866 41.2643 14.4382C41.4036 15.1932 41.4108 19.403 41.2699 20.1118C41.1842 20.5491 41.0087 20.9639 40.7544 21.3298C39.8848 22.5889 38.5942 22.8293 37.1561 22.6103C36.9387 23.7628 36.1479 25.7479 35.7978 26.9396C35.6619 27.4027 34.8132 30.0694 34.6425 30.3961C34.2081 29.9349 33.654 29.5419 33.0273 29.407C33.4694 28.1269 33.8737 26.7611 34.2977 25.4645L37.1995 16.5492Z" fill="#7F3B00"/>
<path d="M18.3411 5.52661C18.4966 6.03553 19.0743 6.92813 19.503 7.2614C19.6218 7.33367 19.6565 7.33495 19.7318 7.44279C20.1064 7.80191 20.471 8.17139 20.8251 8.55093C18.962 11.5476 17.2073 14.7045 15.3338 17.6845C14.6667 17.4728 9.06155 15.6512 8.83597 15.4518C8.75524 15.2162 8.80965 15.0185 9.03842 14.9006C10.61 15.3749 12.7559 16.0839 14.2744 16.6499C14.7538 15.9143 15.2292 15.0461 15.6871 14.2849C16.5883 12.8126 17.4754 11.3318 18.3486 9.84268C18.1525 9.29643 18.2487 6.22251 18.3411 5.52661Z" fill="#7E7F62"/>
<path d="M18.3412 5.52661C18.4968 6.03553 19.0745 6.92813 19.5031 7.2614C19.622 7.33367 19.6566 7.33495 19.7319 7.44279C19.4833 8.06291 18.7278 9.25639 18.3487 9.84268C18.1527 9.29643 18.2489 6.2225 18.3412 5.52661Z" fill="#7F4600"/>
<path d="M29.0312 16.5166C29.7514 16.2611 34.9028 14.6061 35.1019 14.3877C34.7054 13.2646 35.1998 11.789 36.0982 11.025C36.7472 10.4764 37.5863 10.2058 38.4335 10.272C39.3875 10.3559 40.0636 10.7621 40.6655 11.4858C40.3969 11.599 39.8007 11.3077 39.5016 11.3093C36.7816 11.3227 35.793 13.1923 36.1259 15.6181C35.245 15.7736 34.1203 16.2101 33.2455 16.5078L29.741 17.673C29.447 17.2973 29.1708 16.9791 29.0312 16.5166Z" fill="#7E7F62"/>
<path d="M6.125 17.6344C6.35393 17.5741 6.51682 17.5231 6.73235 17.6301C6.97692 17.9942 7.34353 19.3935 7.52461 19.9348L9.93551 27.2997C10.2409 28.2351 10.5963 29.5879 10.957 30.4571C9.94859 30.787 9.22509 31.1243 9.01913 32.2949C8.93969 32.7459 9.00079 33.2234 8.93011 33.6302C8.60051 33.3967 8.03001 32.842 7.9193 32.4508C7.86888 31.5 7.84974 31.2394 8.29117 30.37C8.90076 29.7853 9.09842 29.657 9.89929 29.3729C8.86502 26.3465 7.92711 23.267 6.91869 20.231C6.63647 19.3812 6.34644 18.5013 6.125 17.6344Z" fill="#7E7F62"/>
<path d="M18.3432 5.52664C18.2931 5.20853 18.2645 4.94195 18.2703 4.61729C18.28 3.75149 18.6469 2.92813 19.2844 2.34216C20.6899 1.02439 22.6583 1.26178 23.9033 2.66729L23.8026 2.74275C23.1417 2.63554 22.5897 2.49212 21.9251 2.60427C20.281 2.88171 19.1917 4.41755 19.3042 6.05167C19.325 6.35352 19.5973 7.04542 19.5051 7.26143C19.0764 6.92816 18.4987 6.03556 18.3432 5.52664Z" fill="#7E7F62"/>
<path d="M1.58369 14.1805C1.54413 13.8063 1.50967 13.5229 1.5478 13.1487C1.63012 12.2837 2.06054 11.4892 2.74016 10.9477C3.39729 10.4173 4.23964 10.1725 5.07879 10.2681C5.96788 10.3707 6.69824 10.829 7.24736 11.5225C6.93834 11.5961 6.37981 11.3521 6.051 11.3231C3.9236 11.1361 2.37435 12.8878 2.59275 14.9712C2.62689 15.2957 2.86045 15.7906 2.8587 16.0329C2.24129 15.6234 1.78231 14.8887 1.58369 14.1805Z" fill="#7E7F62"/>
<path d="M23.1172 7.40773C23.8988 6.7798 24.0015 6.62425 24.4957 5.75C24.6317 6.26897 24.7125 9.38964 24.5956 9.84512C24.0725 9.07919 23.5841 8.21386 23.1172 7.40773Z" fill="#7F3B00"/>
<defs>
<linearGradient id="paint0_linear_2323_720" x1="21.2287" y1="42.3907" x2="21.5372" y2="0.0811221" gradientUnits="userSpaceOnUse">
<stop stop-color="#401100"/>
<stop offset="1" stop-color="#6F3A00"/>
</linearGradient>
<linearGradient id="paint1_linear_2323_720" x1="21.7251" y1="34.8666" x2="22.0587" y2="2.61894" gradientUnits="userSpaceOnUse">
<stop stop-color="#7F6300"/>
<stop offset="1" stop-color="#7F7801"/>
</linearGradient>
</defs>
</svg>
