<svg width="41" height="41" viewBox="0 0 41 41" fill="none" xmlns="http://www.w3.org/2000/svg">
<path d="M13.0115 14.1985C13.4528 13.519 15.873 9.62105 15.9846 9.13714C16.0913 8.67459 16.0071 8.07778 16.0074 7.59937C16.0092 5.43551 15.6795 2.97477 17.3394 1.2933C17.9775 0.646609 18.7241 0.288102 19.6056 0.0955757C20.7696 -0.148667 21.983 0.0795589 22.9786 0.730365C23.9446 1.35966 24.6183 2.3496 24.8494 3.47912C25.0155 4.27913 24.9865 5.28036 24.9894 6.11118L25.0058 9.18657C26.0599 10.7166 27.0165 12.6708 28.0299 14.1933C29.1294 13.8583 30.207 13.4575 31.3006 13.1044C31.5318 13.0298 31.7623 12.953 32.0017 12.9088C32.1477 11.4639 32.5067 10.3504 33.6603 9.39908C34.5639 8.66589 35.7181 8.31455 36.8769 8.42012C38.1246 8.54293 39.2092 9.08939 39.9976 10.0712C40.4161 10.5919 40.7052 11.2044 40.841 11.8584C41.0924 13.0195 40.9664 14.7906 40.978 15.9988C40.9993 18.2156 41.2594 20.6986 39.2429 22.1766C38.4388 22.7771 37.5729 23.066 36.5673 23.1287C36.0275 25.0389 35.2293 27.0001 34.7424 28.9298C34.6595 29.2581 34.9099 30.0909 34.8997 30.447C34.9042 31.5043 34.9212 32.6507 34.9053 33.6977C34.8739 35.7579 35.2769 38.1534 33.08 39.294C31.1906 40.2751 28.1908 40.4434 26.0875 40.565C25.7942 40.5821 24.764 40.6378 24.5089 40.6095C23.9522 40.6783 21.8201 40.693 21.1726 40.6789C19.9116 40.6516 17.803 40.7363 16.5998 40.6088C16.5271 40.6158 16.3274 40.6092 16.2446 40.6088C15.9424 40.6053 15.7343 40.608 15.4354 40.5584L15.3885 40.5464C15.1596 40.5661 14.8077 40.5633 14.5853 40.516C12.9839 40.4974 11.5273 40.2667 9.97454 39.9336C7.22273 39.343 5.95498 38.1128 6.10479 35.2122C6.20319 33.3053 5.9173 30.9388 6.30342 28.9892C6.35209 28.7432 5.72981 26.9696 5.60578 26.594L4.4758 23.1423C3.06053 22.9769 1.95755 22.6062 1.02039 21.4571C-0.32851 19.8034 0.0606619 17.4055 0.0284725 15.4125C-0.00844615 13.1372 -0.235604 10.8552 1.77707 9.31624C3.71484 7.83476 6.63203 8.16978 8.09749 10.1692C8.69001 10.9754 8.93227 11.906 9.01588 12.8854C10.1703 13.1846 11.8388 13.8031 13.0115 14.1985Z" fill="url(#paint0_linear_2323_697)"/>
<path d="M16.6016 40.6089C17.6888 40.4954 18.8833 40.6095 19.9769 40.5413C20.9609 40.48 21.9035 40.5499 22.8877 40.5674C23.3919 40.5764 24.0179 40.5546 24.5107 40.6097C23.954 40.6785 21.8219 40.6931 21.1744 40.6791C19.9134 40.6518 17.8048 40.7365 16.6016 40.6089Z" fill="#7C2400"/>
<path d="M14.582 40.5161C14.29 40.3378 14.3812 40.5188 14.2773 40.3732C14.4587 40.1686 15.2046 40.3989 15.3852 40.5465C15.1564 40.5661 14.8044 40.5634 14.582 40.5161Z" fill="#7C2400"/>
<path d="M15.4375 40.5586C15.6187 40.5481 15.787 40.5571 15.9431 40.469L15.877 40.4629C16.0939 40.4036 16.1536 40.3415 16.3237 40.5345L16.2467 40.6089C15.9444 40.6054 15.7364 40.6082 15.4375 40.5586Z" fill="#7C2400"/>
<path d="M17.5396 5.2846C17.4916 4.9804 17.4643 4.72548 17.4698 4.41503C17.4791 3.58711 17.83 2.79976 18.4396 2.23942C19.7837 0.979305 21.6659 1.20631 22.8565 2.55033C23.6031 3.32898 23.6156 4.50183 23.4246 5.49818C23.5545 5.99445 23.6319 8.9786 23.5201 9.41415C24.1922 10.6758 25.108 12.0715 25.8464 13.3132C26.2981 14.0732 26.8972 15.1603 27.3778 15.8618C27.5483 15.905 27.5578 15.863 27.7605 15.7939C28.4492 15.5497 33.3752 13.967 33.5656 13.7582C33.1865 12.6842 33.6593 11.2732 34.5183 10.5426C35.1389 10.018 35.9414 9.75923 36.7514 9.82255C37.6637 9.90279 38.3103 10.2912 38.8859 10.9832C39.6103 11.7933 39.5891 12.8 39.4582 13.8064C39.5914 14.5283 39.5983 18.554 39.4636 19.2318C39.3817 19.6499 39.2139 20.0466 38.9707 20.3965C38.1391 21.6005 36.9049 21.8304 35.5298 21.621C35.3218 22.723 34.5656 24.6213 34.2309 25.7609C34.1009 26.2037 33.2893 28.7537 33.1261 29.0662C33.4712 29.8045 33.4799 30.1534 33.4426 30.9623C33.4642 32.1995 33.4736 33.4369 33.471 34.6743C33.4695 35.3559 33.534 36.105 33.3816 36.7729C33.3037 37.1147 33.1833 37.3819 32.9351 37.6336C31.1839 39.4101 23.0108 39.2565 20.5245 39.2362C19.2862 39.2374 18.0479 39.227 16.8097 39.2051C15.0379 39.1623 13.2018 39.0633 11.4522 38.798C10.3244 38.6101 8.86428 38.3549 8.03025 37.5088C7.36831 36.8374 7.52468 35.3573 7.51827 34.4828C7.50988 33.3454 7.50668 32.1624 7.57228 31.0311C7.52407 30.1219 7.50576 29.8727 7.92789 29.0413C7.67724 28.4707 7.49966 27.8517 7.30363 27.2587C6.98646 26.3252 6.67982 25.3882 6.38386 24.4477C6.15198 23.7221 5.61666 22.2693 5.49568 21.5607C5.04823 21.6632 4.66699 21.72 4.20734 21.6817C3.41557 21.6103 2.68559 21.2235 2.18185 20.6084C1.85401 20.2055 1.62777 19.7297 1.52189 19.2211C1.38215 18.5639 1.44195 14.2894 1.51549 13.56C1.47765 13.2021 1.4447 12.9312 1.48116 12.5733C1.55988 11.7461 1.97148 10.9864 2.62137 10.4686C3.24975 9.96137 4.05524 9.72735 4.85769 9.81873C5.70789 9.91682 6.40629 10.3551 6.93139 11.0183C7.57441 11.7248 7.68303 12.9362 7.41103 13.8229C7.80508 13.9551 8.26229 14.0964 8.64384 14.2485C10.1467 14.7021 12.1987 15.38 13.6507 15.9213C14.1092 15.2179 14.5638 14.3876 15.0016 13.6598C15.8634 12.2519 16.7118 10.8358 17.5467 9.41186C17.3592 8.88951 17.4512 5.95005 17.5396 5.2846Z" fill="url(#paint1_linear_2323_697)"/>
<path d="M7.57356 31.0312C7.67943 31.4053 8.22498 31.9358 8.54016 32.1591C10.6262 33.5011 17.9267 33.4004 20.5456 33.4482C20.5018 34.1019 20.5198 34.953 20.5206 35.625L20.5258 39.2363C19.2875 39.2376 18.0492 39.2272 16.811 39.2052C15.0392 39.1625 13.203 39.0635 11.4535 38.7982C10.3257 38.6103 8.86556 38.355 8.03153 37.5089C7.36959 36.8375 7.52596 35.3574 7.51955 34.483C7.51116 33.3455 7.50796 32.1626 7.57356 31.0312Z" fill="#FE8C01"/>
<path d="M33.4433 30.9624C33.4648 32.1996 33.4743 33.437 33.4717 34.6744C33.4701 35.356 33.5347 36.1051 33.3823 36.773C33.3043 37.1149 33.1839 37.382 32.9357 37.6337C31.1845 39.4102 23.0115 39.2566 20.5251 39.2363L20.5199 35.625C20.5192 34.953 20.5012 34.1019 20.5449 33.4482C23.3556 33.4239 30.4247 33.5894 32.5885 32.131C32.9838 31.8645 33.3479 31.4402 33.4433 30.9624Z" fill="#FE7700"/>
<path d="M1.51549 13.5603C1.70542 14.2375 2.14432 14.94 2.73471 15.3316C3.04746 15.6953 3.75272 15.829 4.21894 15.8622C4.63496 15.8892 5.05266 15.8686 5.46395 15.8007C5.59072 16.2159 5.67966 16.4667 5.85648 16.8631C6.06822 17.6921 6.34557 18.5335 6.61545 19.3462C7.57975 22.2493 8.47663 25.1941 9.46566 28.0881C8.69982 28.3598 8.51081 28.4825 7.92789 29.0416C7.67724 28.471 7.49966 27.8519 7.30363 27.259C6.98646 26.3255 6.67982 25.3885 6.38386 24.4479C6.15198 23.7224 5.61666 22.2696 5.49568 21.561C5.04823 21.6635 4.66699 21.7202 4.20734 21.6819C3.41557 21.6106 2.68559 21.2238 2.18185 20.6087C1.85401 20.2058 1.62777 19.73 1.52189 19.2214C1.38215 18.5642 1.44195 14.2897 1.51549 13.5603Z" fill="#FE8C01"/>
<path d="M35.5717 15.8253C37.4098 16.0588 38.6654 15.5742 39.4587 13.8066C39.5918 14.5285 39.5987 18.5542 39.464 19.232C39.3821 19.6502 39.2143 20.0468 38.9711 20.3968C38.1395 21.6007 36.9053 21.8306 35.5302 21.6212C35.3223 22.7233 34.566 24.6215 34.2313 25.7611C34.1013 26.204 33.2897 28.754 33.1265 29.0664C32.7111 28.6254 32.1813 28.2496 31.582 28.1205C32.0048 26.8964 32.3913 25.5904 32.7968 24.3506L35.5717 15.8253Z" fill="#FE7700"/>
<path d="M17.5409 5.28467C17.6897 5.77132 18.2421 6.62488 18.652 6.94357C18.7657 7.01268 18.7988 7.0139 18.8708 7.11702C19.229 7.46043 19.5777 7.81375 19.9162 8.17668C18.1347 11.0423 16.4567 14.0611 14.6652 16.9107C14.0272 16.7082 8.66733 14.9664 8.45161 14.7757C8.37442 14.5503 8.42644 14.3613 8.64521 14.2486C10.148 14.7021 12.2001 15.3801 13.6521 15.9214C14.1105 15.2179 14.5652 14.3877 15.003 13.6599C15.8648 12.2519 16.7132 10.8359 17.5481 9.41193C17.3606 8.88958 17.4526 5.95012 17.5409 5.28467Z" fill="#FCFEC4"/>
<path d="M17.5397 5.28467C17.6884 5.77132 18.2408 6.62488 18.6507 6.94357C18.7644 7.01268 18.7975 7.0139 18.8695 7.11702C18.6318 7.71001 17.9093 8.85128 17.5468 9.41193C17.3594 8.88958 17.4513 5.95012 17.5397 5.28467Z" fill="#FE8C01"/>
<path d="M27.7617 15.794C28.4504 15.5497 33.3764 13.9671 33.5668 13.7583C33.1877 12.6843 33.6605 11.2733 34.5195 10.5427C35.1401 10.018 35.9426 9.75931 36.7526 9.82262C37.6649 9.90287 38.3115 10.2913 38.887 10.9833C38.6301 11.0916 38.06 10.813 37.774 10.8145C35.1731 10.8274 34.2277 12.6152 34.5461 14.9348C33.7036 15.0835 32.6281 15.5009 31.7916 15.7856L28.4404 16.8999C28.1593 16.5406 27.8952 16.2362 27.7617 15.794Z" fill="#FCFEC4"/>
<path d="M5.85547 16.863C6.07439 16.8053 6.23015 16.7565 6.43625 16.8588C6.67012 17.207 7.0207 18.545 7.19385 19.0627L9.49928 26.1054C9.79127 26.9999 10.1312 28.2936 10.4761 29.1247C9.51179 29.4402 8.81995 29.7627 8.623 30.8821C8.54702 31.3134 8.60545 31.77 8.53787 32.159C8.22269 31.9357 7.67715 31.4052 7.57127 31.0312C7.52306 30.1219 7.50476 29.8728 7.92688 29.0414C8.5098 28.4823 8.69882 28.3596 9.46465 28.0879C8.47563 25.1939 7.57875 22.2491 6.61444 19.346C6.34457 18.5333 6.06722 17.6919 5.85547 16.863Z" fill="#FCFEC4"/>
<path d="M17.5431 5.2846C17.4952 4.9804 17.4679 4.72548 17.4734 4.41503C17.4827 3.5871 17.8335 2.79976 18.4432 2.23942C19.7872 0.979306 21.6694 1.20631 22.86 2.55033L22.7637 2.62249C22.1317 2.51997 21.6038 2.38283 20.9683 2.49007C19.3962 2.75537 18.3545 4.22403 18.4621 5.78666C18.4819 6.0753 18.7423 6.73694 18.6541 6.9435C18.2442 6.62481 17.6918 5.77125 17.5431 5.2846Z" fill="#FCFEC4"/>
<path d="M1.51499 13.5602C1.47716 13.2024 1.4442 12.9314 1.48067 12.5735C1.55938 11.7464 1.97098 10.9866 2.62087 10.4688C3.24925 9.9616 4.05475 9.72757 4.8572 9.81895C5.70739 9.91705 6.4058 10.3553 6.93089 11.0185C6.63539 11.0888 6.10129 10.8556 5.78688 10.8278C3.75254 10.649 2.27106 12.3241 2.47991 14.3163C2.51256 14.6266 2.7359 15.0998 2.73422 15.3316C2.14383 14.94 1.70492 14.2374 1.51499 13.5602Z" fill="#FCFEC4"/>
<path d="M22.1094 7.0835C22.8567 6.48304 22.955 6.3343 23.4276 5.49829C23.5576 5.99456 23.6349 8.97871 23.5231 9.41426C23.0229 8.68184 22.5559 7.85437 22.1094 7.0835Z" fill="#FE7700"/>
<defs>
<linearGradient id="paint0_linear_2323_697" x1="20.3" y1="40.5362" x2="20.5951" y2="0.0775734" gradientUnits="userSpaceOnUse">
<stop stop-color="#7E2201"/>
<stop offset="1" stop-color="#E37801"/>
</linearGradient>
<linearGradient id="paint1_linear_2323_697" x1="20.7741" y1="33.341" x2="21.0931" y2="2.50409" gradientUnits="userSpaceOnUse">
<stop stop-color="#FFC401"/>
<stop offset="1" stop-color="#FFF202"/>
</linearGradient>
</defs>
</svg>
